<?xml version="1.0" encoding="utf-8"?>
<!-- Generator: Adobe Illustrator 19.2.1, SVG Export Plug-In . SVG Version: 6.00 Build 0)  -->
<svg version="1.1" id="Layer_1" xmlns="http://www.w3.org/2000/svg" xmlns:xlink="http://www.w3.org/1999/xlink" x="0px" y="0px"
	 viewBox="0 0 120 82" style="enable-background:new 0 0 120 82;" xml:space="preserve">
<style type="text/css">
	.st0{fill:#231F20;}
	.st1{fill:#6BB1F7;}
	.st2{fill:#FFDF1B;}
	.st3{fill:#FFFFFF;}
	.st4{fill:none;stroke:#231F20;stroke-width:0.193;}
	.st5{fill:none;}
	.st6{fill:#99D6EF;}
	.st7{fill:#66A8DF;}
</style>
<title>logo</title>
<path class="st0" d="M45.6,79.5c8.5,3.1,17.7,3.3,26.3,0.6l0.3-0.1c7.9-2.6,16.4-2.9,24.4-0.8c2.8,0.2,5.8,0.1,7.8-2
	c0.1-1.5,0.1-3,0.4-4.6c1-0.9,2.2-1.5,3.6-1.8c1.4-0.1,2.8-0.6,4-0.3c-0.6,0.2-1.2,0.6-1.7,1c-0.3,0.8,0.1,1.7,0.9,2
	c1.6,0.6,2.8,0.9,4.3-0.1c0.9-0.9,0.3-1.9,0.3-2.9c-0.5-1.9-2.4-3.2-4-4.1l0.2-0.2c3.7-0.9,6.6-3.8,7.4-7.6c0.2-1,0.6-2.6-0.4-3.3
	c-1.2-1-2.9-0.7-4.3-0.7c-1.3,0.3-2.2,1.3-2.5,2.6c0.1,0.6,0.4,1.1,0.9,1.4c0.5,0.1,1,0.3,1.5,0.7c-2.1,0.7-4.2,1.1-6.4,1.3
	c-2.2,0.2-3.7-0.2-5.7,0.5c-2.1,1-3.6,2.9-4.2,5.1c0,0.5-0.1,1-0.3,1.5c-2-0.6-4.1-1.1-6.2-1.3h-0.2c14-17.8,11-43.6-6.8-57.6
	s-43.6-11-57.7,6.8c-11.8,14.9-11.7,36,0.1,50.9v0.1c-2,0.3-3.9,0.7-5.8,1.3l-0.2-0.2c-0.1-1.4-0.5-2.7-1.2-3.9
	c-1.7-2.9-5-3.6-8.1-3.3c-2.4-0.4-5.1-0.4-7.4-1.4l1.6-0.7c0.5-0.2,0.9-0.8,0.8-1.4c0-1.3-1.4-2.1-2.4-2.5c-1.7-0.1-3.5-0.3-4.6,1.1
	C-0.3,58.3,0.5,61,2.3,63c1.5,1.6,3.4,2.8,5.5,3.4c-1.6,0.6-2.9,1.7-3.7,3.1c-0.5,1.2-1,2.7,0,3.8c1.3,1.2,2.8,0.7,4.2,0.1
	c0.7-0.3,1-1.1,0.9-1.9c-0.2-0.7-1-0.8-1.5-1.2c2.3-0.2,4.6,0.2,6.7,1.3c1,0.5,0.9,1.3,1,2.2c0.1,1.2-0.3,2.5,0.7,3.6
	c2.2,1.3,4.7,1.8,7.3,1.5c5.9-1.3,11.9-1.5,17.8-0.6c1.5,0.2,2.9,0.5,4.4,1L45.6,79.5z"/>
<polygon class="st1" points="63.5,29.2 63.5,20 55.9,20 55.9,29.2 57.5,29.2 57.5,30.9 58.6,30.9 58.6,29.2 60.8,29.2 60.8,30.9 
	62,30.9 62,29.2 "/>
<path class="st2" d="M80.4,36.6V20H64v15.8h0.7v0.8h0.4v-0.8h1.1v0.8h0.5v-0.8c0.1-0.6-0.3-1.1-0.9-1.2c-0.1,0-0.2,0-0.3,0v-2h1.7
	v1.2H68v-1.2h1.6v1.2h0.8v-1.2h1.6v2.1c-0.6-0.1-1.1,0.4-1.1,0.9c0,0.1,0,0.2,0,0.3v0.8L80.4,36.6z"/>
<path class="st1" d="M64.8,45.5c-1.5-2.5-2.2-5.5-2-8.5H64v-0.8h0.4V37h1.1v-0.8h0.4V37h0.8c0.1,3.1,0,6.1-1.7,8.6L64.8,45.5z"/>
<path class="st1" d="M80.4,45.6h-7.8c-1.8-2.4-1.8-5.5-1.7-8.6h9.5L80.4,45.6L80.4,45.6z"/>
<path class="st3" d="M70.9,45.9c0-0.2,0-0.4,0.2-0.5c0.5,0.2-0.2,0.5-0.1,0.9c-0.4,0.4,0,1.1,0.1,1.5c0.4-0.3,0.8-0.5,1.3-0.5
	l0.2-0.2l0.2,0.2c0-0.3,0.5,0,0.7,0.1l0.1,0.1c-0.8-0.1-1.6,0-2.3,0.5c0.7,0.2,1.2,0.6,1.7,1.1c0.2,0.4,0.2,0.8,0,1.2
	c-0.2-0.4,0-1.2-0.6-1.6c-0.2-0.5-0.9-0.2-1.2-0.6c-0.2,0.4-0.4,0.8-0.7,1.1c0.7,0.1,1.4-0.2,1.7,0.5c-1.1-0.4-2.4-0.2-3.3,0.7
	c-0.5-0.5-1-0.8-1.7-1c-0.3-0.1-0.8-0.5-1.2-0.6c-0.6-0.1-0.7-0.2-1.3-0.3v-0.1c1.5,0,2.9,0.5,4,1.5c-0.2-0.6-0.2-1.3-0.1-1.9
	c-0.3-0.3-0.7,0.4-1,0.4s-0.5,0.4-0.7,0.1c0.2-0.1,0.5-0.2,0.7-0.3c0.7-0.3,1.2-0.8,1.6-1.5l0.2-1.4C70,45.3,70.6,47.3,70.9,45.9"/>
<path class="st0" d="M70.8,48.3c-0.5,0.6-1.2,1.2-1.9,1.7c-0.3-0.7-0.3-1.4-0.2-2.1c0.4-0.5,0.7-1.2,0.7-1.9
	C70.3,46.4,70.8,47.3,70.8,48.3"/>
<path class="st3" d="M68.1,46.7c-0.4,0.4-0.4,0.9-1.1,0.9c0.4-0.4,0.8-0.8,1.1-1.3C68.5,46.2,68.1,46.5,68.1,46.7"/>
<path class="st1" d="M65.7,45.2c1.7-2.8,1.4-6.5,1.4-10c-0.2-0.5-0.6-0.9-1.2-1V33h0.9v1.2h1.6V33h0.9v1.2h1.6V33h0.9v1.2
	c-0.6,0.1-1,0.5-1.2,1c0,3.5-0.4,7.2,1.4,10l-3.1-1.6L65.7,45.2z"/>
<polygon class="st3" points="75.9,42.2 74.5,43.4 75.2,41.6 73.5,40.6 75.5,40.8 75.9,38.9 76.4,40.8 78.3,40.6 76.7,41.6 
	77.4,43.4 "/>
<polygon class="st4" points="75.9,42.2 74.5,43.4 75.2,41.6 73.5,40.6 75.5,40.8 75.9,38.9 76.4,40.8 78.3,40.6 76.7,41.6 
	77.4,43.4 "/>
<path class="st1" d="M54.6,45.5c1.5-2.5,2.2-5.5,2-8.5h-1.1v-0.8H55V37h-1.1v-0.8h-0.4V37h-0.8c-0.1,3.1,0,6.1,1.7,8.6L54.6,45.5z"
	/>
<path class="st1" d="M39,45.6h7.8c1.8-2.4,1.8-5.5,1.7-8.6H39L39,45.6L39,45.6z"/>
<path class="st3" d="M48.5,45.9c0-0.2-0.1-0.3-0.2-0.5c-0.5,0.2,0.2,0.5,0.1,0.9c0.4,0.4,0,1.1-0.1,1.5c-0.4-0.3-0.8-0.5-1.3-0.5
	l-0.2-0.2l-0.2,0.2c0-0.3-0.5,0-0.7,0.1l-0.1,0.1c0.8-0.1,1.6,0,2.3,0.5c-0.7,0.2-1.2,0.6-1.7,1.1c-0.2,0.4-0.2,0.8,0,1.2
	c0.2-0.4,0-1.2,0.6-1.6c0.3-0.5,0.9-0.2,1.2-0.6c0.2,0.4,0.4,0.7,0.7,1.1c-0.7,0.1-1.4-0.2-1.7,0.5c1.1-0.4,2.4-0.2,3.3,0.7
	c0.5-0.5,1-0.8,1.7-1c0.3-0.1,0.8-0.5,1.2-0.6c0.6-0.1,0.7-0.2,1.3-0.3v-0.1c-1.5,0-2.9,0.5-4,1.5c0.2-0.6,0.2-1.3,0.1-1.9
	c0.3-0.3,0.7,0.4,1,0.4c0.3,0,0.5,0.4,0.7,0.1c-0.2-0.1-0.4-0.2-0.6-0.3c-0.7-0.3-1.2-0.8-1.6-1.5l-0.2-1.4
	C49.5,45.3,48.9,47.3,48.5,45.9"/>
<path class="st0" d="M48.6,48.3c0.5,0.6,1.2,1.2,1.9,1.7c0.3-0.7,0.3-1.4,0.2-2.1c-0.4-0.5-0.7-1.2-0.7-1.9
	C49.1,46.4,48.6,47.3,48.6,48.3"/>
<path class="st3" d="M51.3,46.7c0.4,0.4,0.4,0.9,1.1,0.9c-0.4-0.4-0.8-0.8-1.1-1.3C50.9,46.2,51.3,46.5,51.3,46.7"/>
<polygon class="st3" points="43.5,42.2 44.9,43.4 44.2,41.6 45.9,40.6 43.9,40.8 43.5,38.9 43,40.8 41.1,40.6 42.7,41.6 42,43.4 "/>
<polygon class="st4" points="43.5,42.2 44.9,43.4 44.2,41.6 45.9,40.6 43.9,40.8 43.5,38.9 43,40.8 41.1,40.6 42.7,41.6 42,43.4 "/>
<path class="st1" d="M53.7,45.2c-1.7-2.8-1.4-6.5-1.4-10c0.2-0.5,0.6-0.9,1.2-1V33h-0.8v1.2H51V33h-0.9v1.2h-1.6V33h-0.9v1.2
	c0.6,0.1,1,0.4,1.2,1c0,3.5,0.4,7.2-1.4,10l3.1-1.6L53.7,45.2z"/>
<line class="st5" x1="80.4" y1="64.2" x2="80.2" y2="64.3"/>
<path class="st1" d="M56.6,32.9v3.7h-0.7v-4.4C56.2,32.2,56.5,32.5,56.6,32.9"/>
<path class="st3" d="M60.8,43.8L60.7,44c0.7,0.4,0.6,1.2,1,1.7l-0.1,0.1l0.2,0.2l-0.1,0.1c0.2,0,0.1,0.2,0.3,0.4l-0.1,0.1
	c0.4,0.2,0,0.3,0.2,0.5c0.4,0.5,1,0.8,1.2,1.1c-1-0.4-1.6-1.4-1.7-2.4c-0.2-0.5-0.4-1-0.7-1.5c-0.4,0-0.1-0.4-0.3-0.5L60.5,44
	l-0.2-0.2l0.1-0.1C60.5,43.8,60.6,44,60.8,43.8"/>
<path class="st3" d="M59.1,43.8c-0.4,0.6-1,0.9-1.1,1.5C58,44.6,58.5,44,59.1,43.8"/>
<rect x="57.8" y="45.5" class="st3" width="0.1" height="0.3"/>
<path class="st2" d="M46.9,46c-0.9,0.8-1.6,1.8-2,2.9c0.7,0.6,1.2,1.5,1.2,2.4c0.1,0.5-0.2,1.2,0.3,1.5h8.6v13
	c-3.5-1.5-6.8-2.9-10.3-4.4c-5.3-2.4-5.5-8.6-5.6-10V46H46.9L46.9,46z"/>
<rect x="57.6" y="46.1" class="st3" width="0.1" height="0.2"/>
<path class="st3" d="M57.4,47.2c-0.3,0.4-0.7,0.8-1.2,0.9c0.5-0.4,0.9-0.8,1.1-1.4l0.2-0.2C57.2,46.7,57.5,46.9,57.4,47.2"/>
<path class="st1" d="M60.2,50.6c0,0.4,0.5,0.1,0.7,0.2l-0.5,0.1c0.6,0.6,1.4-0.5,2.3-0.1c0.3,0.3,0.6,0.4,1,0.3l0.1-0.1
	c-0.1-0.4-0.7,0.1-0.7-0.2c0.7,0.1,2-0.3,2.6,0.4c0.2,0.1,0.4,0,0.5-0.2c-0.2-0.1-0.4-0.1-0.5-0.1c0.9-0.1,1.8-0.1,2.7-0.1
	c-0.1,0.1-0.4,0-0.4,0.3c0.2,0.2,0.5-0.2,0.7-0.3c0.8-0.1,1.6-0.1,2.4,0.2c0.7-0.2,1.4-0.3,2.1-0.2v0.3c-0.2-0.1-0.3,0-0.5,0.1
	c0,0.4,0.2-0.1,0.4,0.3c-0.5,0.2-1-0.5-1.3,0.2c0.4,0,0.8,0,1.2,0.1v0.2c-0.4,0-0.9-0.5-1.1,0.1c0.4,0,0.8,0.1,1.2,0.3
	c-0.7-0.2-1.3,0.4-1.8-0.2l-0.6,0.2l0.1,0.1l-2-0.1c0-0.1,0-0.1-0.1-0.2c-0.3,0.2-0.7,0.2-1,0.2c-0.4-0.2-0.9,0.4-1.3-0.1
	c-0.3,0.1-0.7,0.2-1,0.2c-0.4-0.5-1,0.1-1.5,0.1l0.2-0.3c-0.2-0.1-0.4-0.2-0.6,0l0.1,0.1c-0.3,0-0.7,0.2-0.9-0.3
	c-0.9,0.5-2.1,0.5-3-0.1c-0.5,0.6-1.5,0.3-2.2,0.3c-0.2-0.1-0.4-0.2-0.6-0.2l-0.4,0.3c-0.2,0,0.3-0.2,0-0.3L56,52.3
	c0-0.2-0.1-0.3-0.3-0.3c0,0-0.1,0-0.1,0c-0.1,0-0.1,0.2-0.1,0.3c-0.6,0.4-1.1-0.8-1.7,0c-0.6-0.1-1.4,0.2-1.8-0.3
	c-0.3-0.2-0.4,0.3-0.7,0.3c-0.9,0.4-1.5-0.8-2.3,0c-0.6-0.2-1.4,0.3-1.8-0.4c-0.3,0-0.5,0.4-0.8,0.1c0.3-0.2,0.6-0.2,0.9-0.1
	l0.2-0.2c-0.3-0.4-0.8,0.1-1.1-0.1c0.3-0.2,0.7-0.3,1.1-0.3c-0.2-0.6-0.7,0-1.1-0.1c0-0.1,0-0.1,0.1-0.2c-0.1-0.1-0.2-0.3-0.2-0.5
	c0.9-0.1,1.8,0,2.7,0.2c0.1-0.1,0.1-0.2,0.3-0.2c0.5,0.1,0.9,0.1,1.4,0.1c0.1,0.2,0.4,0.3,0.6,0.3c0.1,0,0.1-0.1,0.1-0.2
	c-0.1-0.1-0.3-0.1-0.4-0.1l2.7-0.1l-0.7,0.2c0.4,0.7,0.9-0.2,1.4-0.2c0.6,0.1,1.2,0.1,1.7,0.1c-0.2-0.1-0.5,0-0.7,0.1
	c0.7,0.5,1.7-0.5,2.6,0c0.2,0.1,0.4,0.2,0.7,0.3L59,51l-0.4-0.2C59.2,50.9,59.7,50.8,60.2,50.6"/>
<path class="st0" d="M48.8,51.2c-0.5,0.4-0.9-0.5-1.5-0.3c0.2-0.1,0.5-0.1,0.7,0.1C48.2,51.2,48.5,51.3,48.8,51.2"/>
<rect x="51.8" y="50.7" class="st0" width="0.1" height="0.2"/>
<path class="st0" d="M53.3,51.3c-0.2,0.4-1-0.5-1.1-0.4C52.6,50.9,53,51.1,53.3,51.3"/>
<path class="st0" d="M55.9,51.3C55.5,51.6,55,51,54.6,51C55.1,50.8,55.4,51.3,55.9,51.3"/>
<path class="st0" d="M56.9,50.9l-0.2,0.2L56.9,50.9z"/>
<path class="st0" d="M58.4,51.3c-0.4,0-0.9-0.1-1.3-0.3l0.1-0.2L58.4,51.3z"/>
<path class="st0" d="M51,51.3c-0.4-0.1-0.7-0.2-1.1-0.3C50.4,51,50.7,51.2,51,51.3"/>
<path class="st0" d="M62.3,51c-0.4,0.2-0.9,0.4-1.4,0.5C61.4,51.2,61.8,51,62.3,51"/>
<path class="st0" d="M64.8,51.1c-0.5-0.2-0.8,0.7-1.3,0.4C64,51.3,64.4,50.8,64.8,51.1"/>
<path class="st0" d="M67.2,51c-0.4,0-0.7,0.7-1.2,0.5C66.4,51.5,66.7,50.9,67.2,51"/>
<path class="st0" d="M69.6,51.1c-0.6-0.2-0.9,0.4-1.3,0.2C68.9,51.5,69.2,50.7,69.6,51.1"/>
<path class="st0" d="M72.2,51.1c-0.5-0.3-0.9,0.7-1.6,0.4C71.1,51.4,71.6,50.8,72.2,51.1"/>
<rect x="46.7" y="50.9" class="st0" width="0.1" height="0.2"/>
<path class="st0" d="M60,51.3l-0.7,0.1C59.5,51.3,59.9,50.9,60,51.3"/>
<path class="st0" d="M51.5,51.2l-0.2,0.2L51.5,51.2z"/>
<rect x="52.3" y="51.1" class="st0" width="0.1" height="0.2"/>
<path class="st0" d="M54.8,51.4c-0.3,0-0.5,0-0.8,0.1C54.2,51.3,54.5,51.2,54.8,51.4C54.8,51.4,54.8,51.4,54.8,51.4"/>
<path class="st0" d="M50.2,51.5c-0.8-0.2-1.3,0.4-1.9,0.2C48.8,52,49.5,51,50.2,51.5"/>
<polygon class="st0" points="52.2,51.4 51.7,51.3 52.1,51.3 "/>
<rect x="53.7" y="51.1" class="st0" width="0.1" height="0.2"/>
<path class="st0" d="M56.3,51.3l-0.2,0.2L56.3,51.3z"/>
<path class="st0" d="M58.6,51.7c0,0.1,0,0.1,0.1,0.2c0.3,0,0.2-0.3,0.5-0.2c-0.2,0-0.3,0.1-0.5,0.3c-0.2-0.4-0.6,0-1-0.3
	c-0.3-0.2-0.7-0.3-1-0.4C57.4,51.2,57.9,51.9,58.6,51.7"/>
<rect x="58.9" y="51.1" class="st0" width="0.1" height="0.2"/>
<path class="st0" d="M62.7,51.3c-0.3,0.1-0.6,0.2-0.9,0.3c-0.3,0.2-0.7,0.5-1,0.1C61.7,51.9,62,51.4,62.7,51.3"/>
<path class="st0" d="M65.4,51.5l-0.7-0.1C64.9,51.2,65.2,51.3,65.4,51.5C65.4,51.5,65.4,51.5,65.4,51.5"/>
<path class="st0" d="M67.7,51.4h-0.5C67.4,51.3,67.6,51.3,67.7,51.4"/>
<rect x="68" y="51.1" class="st0" width="0.1" height="0.2"/>
<rect x="63.1" y="51.2" class="st0" width="0.1" height="0.2"/>
<path class="st0" d="M71.5,51.7c-0.7,0.4-1.4-0.4-2.3-0.1C69.9,51.2,70.7,51.9,71.5,51.7"/>
<path class="st0" d="M51,51.7c-0.3,0.2-0.5-0.1-0.7-0.1H51V51.7z"/>
<path class="st0" d="M60,51.9c-0.3-0.4-0.4,0.2-0.7-0.1C59.7,51.7,60,51.5,60,51.9"/>
<polygon class="st0" points="49.3,52 49.8,51.7 50.1,51.9 "/>
<polygon class="st0" points="51.3,51.9 51.3,51.7 51.5,51.7 "/>
<polygon class="st0" points="51.8,51.9 51.8,51.7 52.1,51.7 "/>
<path class="st0" d="M54.7,51.8h-0.5C54.3,51.7,54.5,51.6,54.7,51.8C54.6,51.7,54.6,51.8,54.7,51.8"/>
<path class="st0" d="M56,51.8c-0.3,0.3-0.5-0.1-0.7-0.1L56,51.8L56,51.8z"/>
<path class="st0" d="M56.4,51.7L56.1,52L56.4,51.7z"/>
<path class="st0" d="M57.2,51.9h-0.5C56.7,51.6,57.2,51.6,57.2,51.9"/>
<path class="st0" d="M62.7,51.8L62,52C62.2,51.8,62.4,51.7,62.7,51.8"/>
<rect x="63" y="51.5" class="st0" width="0.1" height="0.2"/>
<path class="st0" d="M64.1,51.8c-0.2,0-0.5,0.4-0.6,0C63.6,51.8,63.8,51.8,64.1,51.8"/>
<path class="st0" d="M65.3,51.9h-0.5C64.8,51.6,65.1,51.7,65.3,51.9"/>
<path class="st0" d="M66.6,51.8c-0.2,0.4-0.7,0.1-0.7-0.1L66.6,51.8z"/>
<path class="st0" d="M67.7,51.8c0,0.2-0.3,0.1-0.4,0.1l0.1-0.2L67.7,51.8z"/>
<path class="st0" d="M69,51.7c-0.2,0.1-0.5,0.1-0.7,0H69z"/>
<rect x="53.7" y="51.6" class="st0" width="0.1" height="0.2"/>
<rect x="68" y="51.6" class="st0" width="0.1" height="0.2"/>
<rect x="63.2" y="51.7" class="st0" width="0.1" height="0.2"/>
<polygon class="st0" points="70.6,52.2 69.4,51.9 70.2,52 "/>
<rect x="51.4" y="51.9" class="st0" width="0.1" height="0.2"/>
<rect x="52.3" y="51.9" class="st0" width="0.1" height="0.2"/>
<polygon class="st0" points="52.9,52.2 52.9,52.1 53.4,52.2 "/>
<path class="st0" d="M58.6,52.2c-0.3,0.2-0.5-0.1-0.7-0.1L58.6,52.2z"/>
<rect x="59" y="51.9" class="st0" width="0.1" height="0.2"/>
<path class="st0" d="M61.8,52.1c-0.2,0.2-0.5,0.2-0.8,0.1C61.2,52.1,61.5,52,61.8,52.1"/>
<rect x="63" y="52" class="st0" width="0.1" height="0.2"/>
<path class="st6" d="M47.5,52.3h-0.4C47.2,52.2,47.4,52.2,47.5,52.3L47.5,52.3L47.5,52.3z"/>
<path class="st6" d="M59.9,52.3h-0.4C59.7,52.2,59.8,52.2,59.9,52.3C59.9,52.3,60,52.3,59.9,52.3"/>
<path class="st1" d="M59.7,69.5c-0.9-1.7-2.4-3-4.3-3.6V52.8H64V66C62.2,66.6,60.6,67.8,59.7,69.5L59.7,69.5L59.7,69.5z"/>
<path class="st1" d="M4.2,55.5c0.2,0-0.3,0-0.2,0.2c0.1,0.2,0.4,0.3,0.6,0.2c0,0,0.1,0,0.1-0.1h0.1c-0.3,0.2-0.6,0.3-1,0.3
	c0.1-0.2,0.1-0.3,0.2-0.5c-0.4-0.1-1.1-0.4-1.4,0c0.2,0.1,0.5,0.1,0.7,0.1L2,55.8l0.5-0.2c0-0.1-0.1-0.1-0.2-0.1
	c-0.1-0.3,0.3-0.2,0.4-0.4C3.2,55.1,3.7,55.2,4.2,55.5"/>
<path class="st1" d="M119.2,56.6c-0.3-0.5-0.8-0.7-1.4-0.8c-0.3,0.5-0.8-0.2-0.9,0.3c0.4,0.3,1.4,0.2,1.7,0.9c0.1,0.2,0,0.4-0.1,0.6
	c0-0.5-0.3-0.9-0.7-1.1c-0.1,0-0.2,0-0.3,0.1l0.8,0.7c-0.9-0.6-1.9-0.9-3-1c0.9-0.8,2.1-1,3.2-0.5C118.8,55.9,119.1,56.2,119.2,56.6
	"/>
<rect x="3.3" y="55.8" class="st6" width="0.1" height="0.2"/>
<rect x="1.1" y="55.9" class="st6" width="0.1" height="0.2"/>
<rect x="1.6" y="56.1" class="st6" width="0.1" height="0.2"/>
<path class="st0" d="M117.3,56.5l-0.6-0.1C116.9,56.3,117.1,56.4,117.3,56.5"/>
<path class="st1" d="M6.3,57.3c-0.4,0.5-1,0.8-1.7,0.8c0.7-0.3,1.2-0.9,1.4-1.7C6.2,56.7,6.3,57,6.3,57.3"/>
<rect x="2.2" y="56.5" class="st6" width="0.1" height="0.2"/>
<path class="st1" d="M115.3,58.4c-0.6,0-1.2-0.3-1.7-0.7c-0.1-0.3,0-0.7,0.2-0.9C114,57.5,114.6,58.1,115.3,58.4"/>
<path class="st3" d="M4.8,57c-0.6,0.4-1.2,0.7-1.9,0.7C3.4,57.1,4.1,56.9,4.8,57"/>
<path class="st3" d="M117,57.8c-0.7,0.2-1.4,0-1.8-0.5C115.8,57.1,116.5,57.3,117,57.8"/>
<path class="st1" d="M9.8,61.1v0.3c-1,0.1-1.8-0.7-2.7-0.3c0.1,0,0.3,0.3,0.4,0.1c0.2,0.8,1.3,0.4,1.9,0.7c1.9,0.5,4.4,0.2,6.4,0.4
	c0.4,0.2,0.9,0.3,1.3,0.4v0.2c-2.6-0.8-5.4-0.4-8-0.7c0.9,0.3,1.9,0.5,2.9,0.5c1.6,0.2,3.6,0,5.2,0.5c-1.4-0.2-3.2-0.2-4.6-0.4
	c1.2,0.7,3,0.2,4.4,0.7c-2.3-0.1-4.6-0.4-6.9-0.9c-0.1,0-0.1,0.2-0.1,0.3c0.4,0.5,1,0.3,1.5,0.5c-1,0-2-0.1-2.9-0.5
	c-0.1,0.1-0.2,0.2-0.2,0.3c1.9,1,4.7-0.1,6.4,0.9c-0.8,0-2.2-0.4-3.1-0.4c-0.7,0.6-1.4-0.1-2.1,0.4c0.8,0.5,1.9-0.1,2.9,0.2l1.5,0.4
	c-0.2,0.6-1.4-0.4-0.9,0.5h0.5c-0.4,0-0.7,0.2-0.9,0.5c0.1,0.4,0.7,0.1,0.7,0.6c-0.4-0.1-0.7-0.1-1.1-0.1c0.1,0.5,0.8,0.1,1.1,0.4
	v0.2c-0.5-0.3-1.2-0.4-1.7-0.2c0.1,0.1,0.3,0.2,0.5,0.2L11.5,67c0.6,0.1,1.2,0.3,1.9,0.5c-0.9-0.2-1.7-0.2-2.6-0.2
	c0.9,0.5,2,0.2,2.9,0.7l0.2,0.2c-0.7,0.2-1.6-0.7-2.4-0.3c-0.4-0.1-0.8-0.2-1.2-0.3c0.1,0.5-0.6,0.1-0.9,0.2c-0.2,0-0.2,0.1-0.3,0.2
	v0.1l1.4,0.2c-0.1,0-0.1,0.1-0.1,0.2c0.8,0.1,1.6,0.2,2.4,0.5c-0.2-0.1-0.4-0.1-0.6-0.1c-0.5,0.2-1,0.1-1.5-0.1
	c0.4,0.1,0.7,0.1,1.1,0.1c-0.5-0.3-1.1-0.5-1.7-0.4c-0.1,0.4-0.7,0.1-0.4,0.5l-0.5-0.1c0.1,0,0.1,0,0.2-0.1
	c-0.4-0.2-0.8-0.3-1.2-0.2v0.3C7.5,68.8,7,68.9,6.5,69l0.2,0.2c2.3-0.2,4.7,0.2,6.8,1.1c-2.6-0.7-5.9-1.4-8.5-0.5
	c0.3-1.2,1.4-1.7,2.3-2.4c1.1-0.6,2.3-0.8,3.5-0.7c0.1-0.3,0.1-0.6,0.1-0.9c-3.6,0.1-7-1.8-8.9-4.9c-0.4-0.9-0.7-1.8-1-2.7
	C3.5,60.1,6.7,60.6,9.8,61.1"/>
<path class="st1" d="M111.7,65.8c-1.6,0.7-3-0.6-4.7,0l-0.1-0.3c1.1-0.2,2.2-0.1,3.3,0.1l0.2-0.2c-0.9-0.5-1.9-0.2-2.8-0.3
	c-0.4-0.2-0.9,0.4-1.2-0.2c2-0.3,4.1,0.6,6.2-0.1c-0.2-0.4-0.4,0-0.6-0.1c-1.2,0.2-2.4,0.1-3.6-0.2l-0.3-0.3c-1.4-0.1-2.8,0.3-4.1,0
	c1.7-0.2,3.6,0,5.6-0.1l0.2-0.2l-0.2-0.2c-1.9,0.2-4.4,0.1-6.2,0.1c0.3-0.2,0.6-0.3,1-0.3l1.2-0.2v-0.1c-0.8-0.1-1.7-0.1-2.5,0.2
	c1.1-1.1,2.7-0.7,4.1-0.4l0.2-0.2c-0.7-0.3-1.4-0.4-2.2-0.5c-0.8,0-1.6,0.2-2.2,0.7c-0.2-0.6,0.5-0.5,0.7-0.7c2.5,0.4,5,0.2,7.4-0.7
	c-0.5-0.4-1.1,0.2-1.7,0.3c-1.9,0.2-3.9,0.3-5.8,0.2c1.7-0.9,3.7,0.2,5.7-0.3v-0.1c-1.4-0.1-2.7-0.2-4.1-0.2
	c1.5-0.1,3.1-0.1,4.6-0.4c1,0.1,2-0.5,3-0.4c2.2-0.4,4.3-1.3,6.2-2.6C118.6,61.9,115,65,111.7,65.8"/>
<path class="st0" d="M35.8,61.3l-0.1,0.1c-0.5-0.3-0.9-0.8-1.2-1.3C34.9,60.3,35.5,60.9,35.8,61.3"/>
<path class="st0" d="M85.7,60.3c-0.2,0.3-0.4,0.6-0.7,0.7c0-0.1,0-0.1-0.1-0.2C85.1,60.7,85.4,60.1,85.7,60.3"/>
<path class="st0" d="M6.7,60.9c-0.5-0.1-1-0.2-1.5-0.4C5.8,60.6,6.3,60.7,6.7,60.9"/>
<rect x="10.9" y="61" class="st6" width="0.1" height="0.2"/>
<path class="st7" d="M14,61.4c-0.6,0.1-1.5-0.2-1.9,0.3c-0.3-0.1-0.6-0.1-0.9-0.1c0.1,0,0.1-0.1,0.1-0.2c0-0.2-0.3,0-0.1-0.2
	C12.4,61.3,13.4,61.4,14,61.4"/>
<path class="st6" d="M16.5,62.1l0.2,0.2c-1.6-0.5-3.6-0.1-5.4-0.4l-3.5-0.7C10.7,61.7,13.7,61.9,16.5,62.1"/>
<path class="st0" d="M111.7,61.5l-2,0.3C110.3,61.5,111,61.4,111.7,61.5"/>
<path class="st6" d="M15.8,61.7c-0.9-0.1-1.8-0.1-2.7-0.1C14.1,61.8,15.1,61.3,15.8,61.7"/>
<path class="st0" d="M114.1,61.7c-0.1,0.2-0.3,0.1-0.5,0.1C113.7,61.6,114,61.6,114.1,61.7"/>
<path class="st0" d="M8.8,62L8.8,62c-0.2,0.1-0.4,0.1-0.4-0.1C8.5,61.9,8.7,61.8,8.8,62"/>
<path class="st0" d="M113,62.1c-0.9,0.3-1.8,0.5-2.8,0.7l-0.1-0.1c0.9-0.4,2-0.5,2.9-0.9L113,62.1L113,62.1z"/>
<polygon class="st6" points="18,63 17.9,62.5 18,62.8 "/>
<path class="st0" d="M35,62.8v0.2l-0.5-0.4C34.8,62.4,34.8,62.6,35,62.8"/>
<path class="st7" d="M18.3,63.8c0.1,0.2-0.5,0.3-0.2,0.5c0.4,0.1,0.4-0.4,0.5-0.5c0-0.2,0-0.4,0.1-0.5c0.3,0.8,0,1.6-0.7,2
	c-0.3,0.1-0.6,0.3-0.8,0.6c0.4,0.4,0.8-0.4,1.3-0.5c0.5-0.4,0.7-1,0.7-1.7c0.4,0.1,0.1,0.5,0.2,0.8c-0.2,0.1-0.3,0.4-0.3,0.6
	l0.1,0.1l0.5-0.7c0.1,0.4,0,0.9-0.4,1.2l-0.6,0.6c0.1,0.1,0.2,0.2,0.4,0.2c0.4-0.4,0.6-0.8,0.8-1.3h0.2c-0.1,0.6-0.4,1.2-0.9,1.6
	l0.2,0.2c0.4-0.3,0.7-0.6,0.9-1c0.1,0.3,0.1,0.7-0.2,1c-0.7,0.9-1.6,0.3-2.5,0.8c0.6,0.1,1.2,0.1,1.7,0c0.5,0,0.9-0.3,1.1-0.8v-0.1
	c0.1,0.1,0.1,0.3,0.2,0.5c-0.4,0.2-0.8,0.4-1.2,0.5c0.4,0.2,0.8,0.1,1.1-0.2c0.2,0,0.1,0.2,0.1,0.4c-0.9,0.1-1.6,0.2-2.3,0.2
	c-1.6,0-3.2-0.5-4.5-1.5c-0.2-0.6,0.1-1.3,0.7-1.6c1-0.1,2-0.4,3-0.9c0.4-0.4,0.6-1,0.6-1.5C18.6,63,18.3,63.5,18.3,63.8"/>
<path class="st0" d="M109.4,62.9c-0.4,0.2-1.2,0-1.7,0.2c0.3-0.4,1.1,0,1.5-0.4L109.4,62.9z"/>
<rect x="36.8" y="62.6" class="st6" width="0.1" height="0.2"/>
<path class="st0" d="M87.5,62.8c-0.3,0.6-0.7,1.1-1.2,1.5C86.5,63.7,87,63.2,87.5,62.8"/>
<path class="st1" d="M103.5,65.2c0.8,0.4,2.1-0.2,2.5,0.9c0.2,0.7-0.2,1.4-0.9,1.7c-1.4,0.4-2.9,0.6-4.3,0.7c-0.4-0.4-1.4,0-1.4-0.7
	c0.4,0,0.7,0.6,1.1,0.3c-0.2-0.4-1-0.4-1.1-0.7c0.6,0.1,1.7,0.6,2.5,0.3c-0.7-0.3-1.9-0.1-2.3-0.9c0,0.2,0.3,0.2,0.5,0.4l0.1-0.1
	l-0.5-0.7l0.1-0.1c0.4,1,1.5,0.8,2.2,0.8v-0.1c-0.7-0.2-1.8-0.2-2-1.1v-0.3c0.3,0.5,0.7,0.8,1.2,1l0.2-0.2c-0.6-0.2-1-0.8-1-1.5
	l0.1-0.1c0,0.3,0.1,0.6,0.2,0.8c0.3,0.2,0.6,0.6,0.9,0.3c-0.5-0.2-0.7-0.6-0.7-1.1h-0.1v-0.3h0.1c-0.1,0.2,0,0.4,0.2,0.5l-0.1,0.1
	c0.7,0.6,1.5,0.9,2.3,1l0.2-0.2c-0.9-0.3-2-0.4-2.3-1.4v-0.7l0.3,0.3l0.1-0.7c0.2,0.6,0.3,1.4,1,1.6c0.2-0.5-0.4-0.6-0.6-1
	c-0.2-0.4-0.2-0.8,0-1.1C102,63.9,102.6,64.8,103.5,65.2"/>
<path class="st0" d="M113.4,62.9c0.1,0.3-0.2,0.2-0.3,0.3h-0.3C113,63.1,113.1,62.8,113.4,62.9"/>
<path class="st6" d="M37.7,64.4c0.2,0,0.3,0.4,0.5,0.1l0.5,0.4C38.3,64.3,37.9,65,37.7,64.4l-1.2-1C37.2,63.5,37.3,64,37.7,64.4"/>
<polygon class="st0" points="106,63.6 106,63.4 106.8,63.6 "/>
<path class="st0" d="M112.1,63.5c-0.7,0.2-1.2,0.4-1.9,0.5c0.4-0.5,1.1-0.2,1.5-0.7C111.9,63.4,112,63.4,112.1,63.5"/>
<path class="st0" d="M8.8,64c-0.3,0-0.6,0-0.9-0.2L8,63.7L8.8,64z"/>
<path class="st6" d="M15.7,64c-0.7,0-1.4-0.1-2-0.4C14.4,63.6,15.1,63.7,15.7,64"/>
<path class="st6" d="M16.4,63.8c-0.2,0.3-0.5-0.1-0.8-0.1L16.4,63.8z"/>
<path class="st6" d="M37.1,64.4c-0.1-0.2-0.4-0.3-0.6-0.2l0.1-0.3L37.1,64.4z"/>
<path class="st6" d="M14,64.4c-0.3-0.1-0.8-0.1-1.2-0.2C13.2,64.2,13.6,64.2,14,64.4"/>
<path class="st0" d="M103,65.4c-0.6,0-1.2-0.4-1.5-0.9l0.1-0.2C101.8,64.9,102.4,65.3,103,65.4"/>
<path class="st0" d="M111.1,64.5h-1.9v-0.1C109.8,64.4,110.5,64.4,111.1,64.5"/>
<path class="st0" d="M8.8,64.9c-0.2-0.3-0.3,0.2-0.5-0.2C8.5,64.5,8.9,64.7,8.8,64.9"/>
<path class="st0" d="M12.3,64.8l-1.9-0.1C11.1,64.7,11.7,64.7,12.3,64.8"/>
<path class="st6" d="M107.9,64.6c-0.6,0.1-1.2,0.1-1.9,0.1C106.6,64.6,107.2,64.6,107.9,64.6"/>
<path class="st0" d="M12.1,65.3c-1,0-2-0.2-3-0.4v-0.2C10,65.1,11.1,65.1,12.1,65.3"/>
<path class="st6" d="M37.2,64.8l0.2,0.2L37.2,64.8z"/>
<path class="st6" d="M37.9,65.2v0.1l-0.3-0.3C37.7,65,37.8,65.2,37.9,65.2"/>
<path class="st0" d="M19.1,65.3c-0.2,0.1-0.2,0.4-0.5,0.3c-0.1-0.3,0.3-0.2,0.4-0.5C19,65.2,19,65.3,19.1,65.3"/>
<path class="st6" d="M39.3,65.8c-0.3,0-0.6-0.2-0.9-0.5L39.3,65.8z"/>
<path class="st0" d="M15.9,65.4c-0.2,0.5-1.9,0.4-1,1.5c-0.3,0.1-0.3-0.3-0.4-0.5C14.4,65.8,15.4,65.7,15.9,65.4"/>
<path class="st6" d="M13,65.6h-0.4v-0.1C12.7,65.5,12.9,65.5,13,65.6"/>
<polygon class="st0" points="11.1,65.8 11.1,65.7 11.7,65.8 "/>
<path class="st6" d="M38.2,66.3l-0.8-0.6C37.7,65.8,38,66,38.2,66.3"/>
<path class="st0" d="M105.6,66.3c0.1,0.3,0,0.7-0.2,0.9c-0.1-0.3,0.2-1-0.3-1.2l-0.7-0.1v-0.2C104.9,65.7,105.3,65.9,105.6,66.3"/>
<path class="st0" d="M16.9,65.9c-0.2,0.2-0.4,0.4-0.7,0.4C16.4,66.1,16.6,65.9,16.9,65.9"/>
<path class="st0" d="M104.2,66.4c-0.6,0-1.1-0.1-1.7-0.4c0.4,0,1,0.2,1.5,0.3C104,66.4,104.1,66.4,104.2,66.4"/>
<path class="st1" d="M108.9,66.1c-0.1,0.3,0,0.6,0.2,0.9c2.3-0.1,4.6,1,5.8,3c-3.2-0.7-6.5-0.4-9.5,0.8h-0.3
	c1.1-0.8,2.6-0.7,3.8-1.3c-0.5-0.4-0.9,0.2-1.4,0.2c0.8-0.6,2.5-0.4,3.6-0.6l-0.3-0.3c-1.8,0.1-3.6,0.5-5.3,1.1c0-0.3,0.7-0.2,1-0.5
	c-0.2-0.3-0.7,0.1-1.1,0.1c0.9-0.5,2-0.9,3-1.1l1.3,0.1l-0.3,0.3c0.4,0.2,0.8,0.2,1.1,0c-0.4,0-0.4-0.7-0.9-0.5
	c-1.5-0.4-2.7,0.5-4.1,0.7c1.4-1.2,3.5-0.7,5.3-1.1c-0.8-0.2-1.7-0.3-2.5-0.1c-0.8,0-1.7,0.2-2.4,0.5c0.9-0.5,1.9-0.9,3-0.9
	c0.2,0,0.3,0,0.4-0.2c-0.3-0.2-0.6-0.2-0.9,0c-0.1-0.6-1.1,0-1.7-0.1c0-1,1.4-0.1,1.6-0.7c-0.5-0.1-0.9-0.1-1.4,0.1l-0.2-0.5
	C107.6,65.9,108.3,65.9,108.9,66.1"/>
<path class="st0" d="M103.2,66.5L103.2,66.5c-0.5,0.2-1-0.2-1.5-0.2v-0.2C102.2,66.2,102.6,66.5,103.2,66.5"/>
<path class="st6" d="M39.7,66.4v0.1l-0.5-0.3C39.4,66.3,39.6,66.3,39.7,66.4"/>
<path class="st0" d="M19.1,67c-0.9,0.2-1.8,0-2.5,0.5c0.1-0.3,0.4-0.5,0.7-0.5C17.9,66.9,18.5,66.9,19.1,67"/>
<path class="st6" d="M12.5,66.9l0.3,0.1L12.5,66.9z"/>
<path class="st0" d="M10.4,67.4c-0.3,0.3-0.5,0-0.7-0.1C9.9,67,10.2,67.4,10.4,67.4"/>
<path class="st6" d="M108.2,67.4c-0.5,0.2-1,0.3-1.6,0.5C107,67.4,107.6,67.5,108.2,67.4"/>
<path class="st0" d="M8.8,67.9C8.5,68,8.2,68,8,68v-0.2L8.8,67.9z"/>
<path class="st0" d="M112.7,68.3v0.1c-0.5,0.1-0.9-0.2-1.5-0.2v-0.1C111.8,68.1,112.3,68.2,112.7,68.3"/>
<path class="st6" d="M13.4,68.4l0.5,0.2L13.4,68.4z"/>
<path class="st6" d="M14.2,68.9c-0.4,0-0.7-0.1-1-0.3C13.6,68.7,13.9,68.8,14.2,68.9"/>
<rect x="12.6" y="68.5" class="st6" width="0.1" height="0.2"/>
<polygon class="st6" points="8.4,68.9 8.5,68.9 8.6,68.9 "/>
<polygon class="st6" points="14.4,69.4 12.8,68.9 14.3,69.3 "/>
<path class="st0" d="M109.1,68.9c-0.6,0.2-1.4,0.3-2,0.5C107.7,69.1,108.4,68.9,109.1,68.9"/>
<polygon class="st6" points="10.8,69.2 9.8,69 10.5,69.1 "/>
<path class="st0" d="M112.5,69.1c-0.4,0.1-0.7,0.2-1.1,0.1C111.7,69.1,112.1,69.1,112.5,69.1"/>
<path class="st6" d="M14.6,70.1c-0.7-0.2-1.7-0.6-2.5-0.9C13,69.4,13.8,69.7,14.6,70.1"/>
<path class="st6" d="M12,69.5l0.6,0.2L12,69.5z"/>
<path class="st6" d="M14,69.6l0.4,0.2L14,69.6z"/>
<path class="st6" d="M12.8,69.8l0.3,0.1L12.8,69.8z"/>
<rect x="107.3" y="69.6" class="st6" width="0.1" height="0.2"/>
<path class="st6" d="M14,70.2l0.7,0.3L14,70.2z"/>
<path class="st6" d="M105.4,70.5c0-0.3,0.4-0.2,0.5-0.3L105.4,70.5z"/>
<path class="st3" d="M7.1,71.9v0.3c-0.6-0.1-1-0.4-1.4-0.9V71C6.3,71,6.9,71.4,7.1,71.9"/>
<path class="st6" d="M113.2,72.4h-0.4c-0.2-0.4,0.3-0.7,0.7-0.9l0.6-0.2C114.4,71.9,113.5,72.2,113.2,72.4"/>
<path class="st6" d="M5.2,72.1c-0.2-0.1-0.4-0.4-0.4-0.6L5.2,72.1z"/>
<path class="st6" d="M8.3,72.2c-0.1,0-0.1,0.1-0.1,0.2L8,71.4C8.2,71.6,8.7,71.9,8.3,72.2"/>
<rect x="4.6" y="71.6" class="st6" width="0.1" height="0.2"/>
<path class="st6" d="M111.8,72.6c-0.3-0.2-0.4-0.7,0.1-0.9L111.8,72.6z"/>
<polygon class="st6" points="115.2,72.2 115.2,71.9 115.2,72.1 "/>
<path class="st6" d="M5.5,72.6c-0.3-0.1-0.9,0-0.7-0.6L5.5,72.6z"/>
<rect x="115" y="72.2" class="st6" width="0.1" height="0.2"/>
<path class="st6" d="M115.2,73.1c-0.5,0.3-1.1,0.4-1.6,0.1c0.3,0,0.6-0.5,0.9-0.4l-0.5,0.3c0.3,0.3,0.6-0.2,0.9-0.3l0.2-0.3
	C115.5,72.7,115.5,72.9,115.2,73.1"/>
<path class="st6" d="M6.3,72.9c-0.4,0.2-0.8,0.2-1.2,0C5.4,73.3,5.8,72,6.3,72.9"/>
<polygon class="st3" points="59.7,62.6 58.2,63.9 59,62.1 57.3,61.1 59.2,61.3 59.7,59.4 60.2,61.3 62.1,61.1 60.4,62.1 61.2,63.9 
	"/>
<polygon class="st4" points="59.7,62.6 58.2,63.9 59,62.1 57.3,61.1 59.2,61.3 59.7,59.4 60.2,61.3 62.1,61.1 60.4,62.1 61.2,63.9 
	"/>
<polygon class="st3" points="59.7,25.5 58.2,26.8 59,25 57.3,24 59.2,24.1 59.7,22.3 60.1,24.1 62.1,24 60.4,25 61.2,26.8 "/>
<polygon class="st4" points="59.7,25.5 58.2,26.8 59,25 57.3,24 59.2,24.1 59.7,22.3 60.1,24.1 62.1,24 60.4,25 61.2,26.8 "/>
<path class="st1" d="M62.8,32.8v3.7h0.7v-4.4C63.2,32.2,62.9,32.5,62.8,32.8"/>
<path class="st3" d="M59.7,40.3c0.2,0,0.3,0.1,0.4,0.2c0.5,0.4,0.6,2.8,0.6,2.8c-0.3-0.1-0.6-0.2-0.9-0.2c-0.3,0-0.7,0-1,0.2
	c0,0,0-2.4,0.6-2.8C59.4,40.4,59.5,40.3,59.7,40.3L59.7,40.3L59.7,40.3z"/>
<path class="st1" d="M63.5,31.7c-0.7,0.1-1.2,0.7-1.2,1.5v3.9c0,1.1,0.3,3.6,0.3,3.6c0.4,2.5,1.4,4.8,3,6.7v0.1
	c-0.8-0.3-1.5-0.8-2.1-1.4c-0.7-0.6-1.4-1.4-2-2.1c-0.2-0.3-0.3-0.7-0.4-1c-0.1-1-0.3-2.5-0.8-2.9c-0.2-0.2-0.4-0.3-0.7-0.3l0,0
	c-0.3,0-0.5,0.1-0.7,0.3c-0.5,0.4-0.7,1.9-0.8,2.9c-0.1,0.3-0.2,0.6-0.4,0.9c-0.6,0.8-1.2,1.5-2,2.1c-0.6,0.6-1.3,1.1-2.1,1.3
	c1.7-1.9,2.8-4.2,3.1-6.7c0,0,0.3-2.4,0.3-3.6v-3.9c0-0.7-0.5-1.3-1.2-1.5v-2H57v1.7h2v-1.6h1.2v1.7h2.1v-1.7h1.1L63.5,31.7
	L63.5,31.7z"/>
<rect x="58.2" y="32.5" class="st0" width="1.1" height="3.6"/>
<rect x="58.6" y="32.9" class="st3" width="0.4" height="2.9"/>
<rect x="60" y="32.5" class="st0" width="1.1" height="3.6"/>
<rect x="60.4" y="32.9" class="st3" width="0.4" height="2.9"/>
<path class="st3" d="M81.3,20.8v30.4c0,2.4-0.6,4.8-1.8,6.9c-1.1,2.4-3.9,3.8-4.3,4c-0.4,0.2-6.7,2.9-10.9,4.6S60.1,71,60.1,71l0,0
	h0.2c16.6-0.3,29.8-14,29.5-30.6c-0.1-7.6-3.2-14.9-8.5-20.4V20.8L81.3,20.8z"/>
<path class="st3" d="M39.1,19.1c11.6-10.8,29.5-10.8,41.1,0H39.1z"/>
<path class="st3" d="M38.2,20.8v30.4c0,2.4,0.6,4.8,1.8,6.9c1.1,2.4,3.9,3.8,4.3,4S51,65,55.1,66.7s4.2,4.2,4.2,4.2l0,0H59
	c-16.6-0.3-29.8-14-29.4-30.6c0.2-7.6,3.2-14.9,8.6-20.4L38.2,20.8z"/>
<rect x="54" y="38" class="st0" width="0.9" height="2.2"/>
<rect x="54.3" y="38.2" class="st3" width="0.4" height="1.7"/>
<rect x="64.5" y="38" class="st0" width="0.9" height="2.2"/>
<rect x="64.7" y="38.2" class="st3" width="0.4" height="1.7"/>
<rect x="49.9" y="34.7" class="st0" width="1.5" height="2.2"/>
<rect x="50.3" y="35.1" class="st3" width="0.7" height="1.5"/>
<rect x="68.1" y="34.7" class="st0" width="1.5" height="2.2"/>
<rect x="68.4" y="35.1" class="st3" width="0.7" height="1.5"/>
<path class="st1" d="M89.9,66.3l0.4-0.4c-0.1-0.1-0.2-0.2-0.4-0.2c-0.2,0.4-0.6,0.6-1.1,0.6l-0.1-0.1c0.3-0.4,1-0.8,0.9-1.2
	c-0.8,0.2-0.9,1.4-1.9,1.2l0.9-0.8c-0.5-0.1-0.9,0.5-1.4,0.8h-0.7c0.3-0.4,1.1-0.5,0.9-1.1c-0.6,0.2-0.9,1-1.6,1.1l0.5-0.3
	c-0.2-0.4-0.5,0-0.7,0c0.6-0.5,1.1-1.1,1.6-1.7c-0.1-0.1-0.2-0.1-0.3-0.1c-0.5,0.8-1.1,1.4-1.9,1.9c0.1-0.5,0.9-0.9,1.1-1.5
	c-0.8,0.1-1.2,1.6-2.2,1.3c1.2-0.8,2.2-1.9,2.9-3.2l-0.1-0.1c-0.9,0.8-1.4,2.2-2.5,2.4l-0.7,0.7c-0.1-0.1-0.2-0.1-0.3-0.1
	c0.5-0.3,0.9-0.7,1.2-1.2c-0.8,0.1-1.4,1.4-2.2,1.3L81,66.3c1.5-0.8,2.8-1.9,3.9-3.2c0.2-0.1,0.3-0.3,0.4-0.5L85,62.4
	c-0.7,1-1.7,1.9-2.7,2.5l1.9-1.8c-0.2-0.4-0.6,0-0.7,0.1c-0.9,0.9-1.5,1.8-2.7,2.2c1.1-1.2,3-2.3,4-4c-0.5-0.2-0.7,0.7-1.1,0.9
	c-1.2,1.5-2.5,2.2-3.9,3.4c-0.1,0-0.3,0.1-0.4-0.1c0.3-0.5,1.1-0.5,1.5-1.1c-0.2-0.2-0.5,0.1-0.7,0.3c0.1,0,0.5-0.7,0.9-0.5
	c0.4-0.3,0.7-0.6,1-1c0.6-1-2,1.2-2,1.2c13-11.3,14.4-30.9,3.1-43.9c-11.3-13-31-14.4-44-3.1s-14.4,30.9-3.1,43.9
	c0.7,0.8,1.4,1.5,2.1,2.2l-0.5-0.1c-0.6-0.5-1-1.2-1.5-1.7c-0.4,0.3,0.3,0.5,0.4,0.7c-0.6,0.5-0.9-0.6-1.5-0.9
	c-0.1-0.3-0.2-0.5-0.5-0.6l-0.2,0.2l1.8,2.3c-0.1,0-0.2,0-0.3,0.1L35.4,63l-0.2,0.2l2.3,2.2c-0.5-0.3-0.9-0.6-1.3-1
	c-0.1,0.1-0.2,0.1-0.3,0.1c-0.7-0.8-1.4-1.6-2.1-2.3l-0.2,0.2c0.9,1.1,1.9,2.1,3,3c-0.7,0.1-1.2-0.7-1.7-1.1c-0.2,0-0.3,0.1-0.5,0.2
	c0.1,0.3,0.6,0.6,0.3,0.7c-0.4-0.5-0.8-0.9-1.3-1.3c0.2,1,1.3,1.5,2,2.2c-1.2-0.6-2.3-1.4-3.3-2.3c-0.1,0.1-0.1,0.2-0.1,0.3l2.4,2
	c0,0.2-0.3,0.1-0.4,0.1c-1.1-0.7-2-1.6-2.9-2.6l-0.2,0.2c0.7,0.9,1.5,1.7,2.5,2.3c-0.7,0.4-1.2-1-1.9-0.7l0.9,0.7
	c-0.1,0.1-0.2,0.1-0.4,0.1l-1.7-1.4L30.4,65c0.4,0.4,0.9,0.8,1.5,1.1c-0.7,0.4-1.1-0.8-1.7-0.3l0.6,0.4c-0.2,0.2-0.7-0.4-1-0.7
	l-0.2,0.2l0.5,0.6c-0.4,0-0.9,0-1.3,0.1C14.7,49.2,17.2,24,34.3,10s42.4-11.4,56.4,5.7c12,14.7,12,35.8,0,50.6
	C90.5,66.2,90.2,66.2,89.9,66.3"/>
<path class="st1" d="M15.1,68.5c0.5,1.3,0.9,2.6,1,4c0.1,1.8,0.1,2.9,0.1,3.2c0,0.5,0.2,0.9,0.5,1.2c1,0.6,2,1,3.1,1.2
	c0.9,0.2,1.9,0.2,2.9,0.2c0.8-0.1,4-0.7,4.7-0.8c0.7-0.1,5.2-0.4,6.9-0.4c2.6,0.1,5.3,0.4,7.9,0.8c2,0.4,3.4,0.8,3.4,0.8
	c8.3,3.1,17.4,3.3,25.8,0.7c0,0,3.8-1.1,4.8-1.2c3.6-0.6,7.3-0.9,10.9-0.9c3.4,0.2,6.7,0.7,10,1.3c0.6,0.1,1.2,0.1,1.8,0
	c1-0.1,1.9-0.4,2.8-0.7c0.5-0.3,1-0.5,1.5-0.8c0,0,0.3-6.6,1.2-7.9c-1.1,0.4-2.3,0.6-3.4,0.4c-0.9-0.1-1.8-0.3-2.7-0.5
	c-0.4,0-7.3-1.7-11.2-1.7h-2.9c-3.9,0-7.7,0.7-11.3,2.1L70.9,70c-3.5,1.3-7.1,2.1-10.9,2.1h-0.9c-3.7-0.1-7.3-0.8-10.7-2.1l-2.3-0.8
	c-3.6-1.4-7.4-2.1-11.3-2.1H32c-4,0-10.8,1.7-11.3,1.8c-0.8,0.2-1.7,0.3-2.5,0.2C17,69.1,14.9,68.4,15.1,68.5"/>
<path class="st0" d="M19.1,73.9l1-0.1c0.3-0.1,0.5,0.1,0.6,0.3c0,0,0,0,0,0c0.1,0.3-0.1,0.5-0.4,0.6c0,0-0.1,0-0.1,0l-0.9,0.1
	L19.1,73.9z M18.6,75.6l1.5-0.2c0.4,0,0.8-0.2,1.1-0.5c0.2-0.2,0.3-0.5,0.2-0.8c0-0.4-0.3-0.7-0.7-0.8c0.3-0.2,0.4-0.5,0.3-0.8
	c-0.1-0.5-0.6-0.9-1.2-0.8c0,0-0.1,0-0.1,0L18,72L18.6,75.6z M18.9,72.5l0.9-0.1c0.3,0,0.6,0,0.6,0.3c0,0.2-0.2,0.5-0.4,0.5
	c0,0,0,0-0.1,0L19,73.3L18.9,72.5z"/>
<path class="st0" d="M23.2,73.1c0.1-0.5,0.6-0.9,1.2-0.8c0.5,0.1,0.9,0.6,0.8,1.2c-0.1,0.4-0.4,0.7-0.8,0.8c-0.6,0.1-1.1-0.4-1.2-1
	C23.2,73.2,23.2,73.2,23.2,73.1 M22.4,73.2c0.2,1,1.2,1.6,2.1,1.4c1-0.2,1.6-1.2,1.4-2.1c-0.2-0.9-1-1.5-2-1.4
	c-0.9,0.1-1.7,0.9-1.6,1.9C22.4,73,22.4,73.1,22.4,73.2"/>
<polygon class="st0" points="28.9,70.6 29.6,70.6 29.9,74.2 29.2,74.3 27.4,71.8 27.4,71.8 27.7,74.4 27,74.5 26.6,70.8 27.4,70.8 
	29.1,73.2 29.1,73.2 "/>
<path class="st0" d="M33.9,72.7c0.1,0.7-0.4,1.4-1.1,1.5c-0.1,0-0.2,0-0.3,0c-0.4,0-0.9-0.1-1.2-0.4c-0.2-0.2-0.3-0.5-0.3-0.9
	l-0.1-2.4h0.8l0.1,2.4c0,0.4,0.2,0.7,0.6,0.7c0,0,0.1,0,0.1,0c0.4,0,0.7-0.2,0.7-0.6c0-0.1,0-0.1,0-0.2L33,70.4h0.8L33.9,72.7z"/>
<path class="st0" d="M35.4,72.8c0,0.3,0.3,0.6,0.6,0.6c0,0,0.1,0,0.1,0c0.4,0,0.8-0.1,0.8-0.5c0-0.4-0.3-0.4-0.7-0.5l-0.4-0.1
	c-0.6,0-1.1-0.4-1.2-1c0,0,0,0,0,0c0-0.6,0.5-1.2,1.2-1.2c0.1,0,0.2,0,0.2,0c0.7-0.1,1.3,0.4,1.4,1c0,0,0,0.1,0,0.1h-0.7
	c0-0.3-0.3-0.6-0.7-0.6c0,0-0.1,0-0.1,0c-0.3-0.1-0.6,0.1-0.6,0.4c0,0,0,0,0,0c0,0.2,0.2,0.4,0.4,0.4l0.9,0.2c0.6,0,1,0.4,1,1
	c-0.1,0.7-0.7,1.2-1.4,1.2c0,0,0,0-0.1,0c-1.4,0-1.6-0.8-1.6-1.2L35.4,72.8L35.4,72.8z"/>
<rect x="40.5" y="72.1" transform="matrix(0.1454 -0.9894 0.9894 0.1454 -35.4872 103.8501)" class="st0" width="3.7" height="0.8"/>
<polygon class="st0" points="46.6,71.4 47.3,71.6 46.5,75.2 45.7,75 44.9,72.1 44.9,72.1 44.3,74.7 43.6,74.5 44.4,70.9 45.2,71.1 
	46,73.9 46.1,73.9 "/>
<polygon class="st0" points="49.2,76 48.4,75.8 49.4,72.9 48.3,72.6 48.5,72 51.4,72.9 51.2,73.5 50.1,73.2 "/>
<path class="st0" d="M52.5,75l0.3-0.9l0.9,0.3c0.3,0,0.4,0.3,0.4,0.5c0,0,0,0.1,0,0.1c-0.1,0.3-0.3,0.4-0.6,0.4
	c-0.1,0-0.1,0-0.2-0.1L52.5,75z M51.2,76.7l0.7,0.3l0.4-1.4l0.8,0.2c0.5,0.2,0.5,0.4,0.4,0.8c-0.1,0.2-0.1,0.5-0.1,0.7l0.8,0.3v-0.1
	c-0.1-0.1-0.1-0.2,0.1-0.8c0.2-0.5,0.1-0.8-0.2-1c0.4,0,0.7-0.3,0.8-0.7c0.2-0.5,0-1.1-0.5-1.3c-0.1,0-0.2-0.1-0.3-0.1l-1.8-0.5
	L51.2,76.7z"/>
<path class="st0" d="M57.5,75.4L57.5,75.4l0.3,1.5l-0.9-0.1L57.5,75.4z M56.5,77.4l1.4,0.2l0.2,0.8l0.8,0.1l-0.8-3.8l-0.9-0.1
	L55.4,78l0.8,0.1L56.5,77.4z"/>
<polygon class="st0" points="68,77.3 67.3,77.5 66.6,74.4 66.6,74.5 66.6,77.6 65.9,77.8 64.6,74.9 64.5,74.9 65.2,77.9 64.5,78.1 
	63.7,74.5 64.8,74.2 66.1,76.9 66.1,76.9 66.1,73.9 67.2,73.7 "/>
<polygon class="st0" points="71.2,73.2 69.3,73.8 69.5,74.5 71.2,74 71.4,74.6 69.7,75.1 70,76.1 71.9,75.5 72.1,76.1 69.4,76.9 
	68.4,73.4 71,72.6 "/>
<polygon class="st0" points="73.9,74.9 75.7,74.4 75.8,75.1 73.3,75.8 72.3,72.2 73.1,72 "/>
<rect x="76.5" y="71.1" transform="matrix(0.9768 -0.2141 0.2141 0.9768 -13.8406 18.1516)" class="st0" width="0.8" height="3.7"/>
<path class="st0" d="M79.2,72.5c0.1-0.5,0.6-0.9,1.1-0.8c0.5,0.1,0.9,0.6,0.8,1.1c-0.1,0.4-0.4,0.8-0.8,0.8
	c-0.6,0.1-1.1-0.4-1.2-0.9C79.2,72.6,79.2,72.6,79.2,72.5 M78.4,72.6c0.2,1,1.2,1.6,2.1,1.3c1-0.2,1.6-1.2,1.3-2.1
	c-0.2-0.9-1.1-1.5-2-1.4c-0.9,0.1-1.6,0.9-1.5,1.9C78.4,72.4,78.4,72.5,78.4,72.6"/>
<path class="st0" d="M84,71.8v-1h1c0.2,0,0.5,0.1,0.5,0.4c0,0,0,0.1,0,0.1c0,0.3-0.2,0.5-0.4,0.5c-0.1,0-0.1,0-0.2,0L84,71.8z
	 M83.3,73.9H84v-1.4h0.8c0.6,0,0.6,0.2,0.6,0.7c0,0.3,0,0.5,0.1,0.7h0.9v-0.1c-0.2-0.1-0.2-0.2-0.2-0.7c0-0.5-0.2-0.8-0.5-0.9
	c0.4-0.1,0.6-0.5,0.6-0.9c0-0.6-0.4-1-1-1c-0.1,0-0.1,0-0.2,0h-1.9L83.3,73.9z"/>
<polygon class="st0" points="95,71.4 93.1,71.2 93,72 94.7,72.2 94.7,72.8 92.9,72.6 92.8,73.6 94.8,73.8 94.7,74.5 91.9,74.1 
	92.4,70.5 95.1,70.8 "/>
<polygon class="st0" points="99.2,75.2 98.3,75 97.8,73.7 96.8,74.8 96,74.6 97.5,73 96.7,71 97.6,71.2 98,72.5 98.9,71.4 
	99.7,71.6 98.3,73.1 "/>
<rect x="99.4" y="73.4" transform="matrix(0.2133 -0.977 0.977 0.2133 7.5981 156.9519)" class="st0" width="3.7" height="0.8"/>
<polygon class="st0" points="31.8,58.9 32.4,59.7 29.1,61.9 29.9,63.1 29.2,63.6 27,60.3 27.7,59.8 28.5,61 "/>
<path class="st0" d="M27.7,56.4c-1.2,0.5-1.8,0-2.1-0.5c-0.2-0.5-0.2-1.3,1-1.9s1.8,0,2.1,0.5C28.9,55.1,28.9,55.9,27.7,56.4
	 M28.1,57.3c1.2-0.4,1.8-1.7,1.4-2.9s-1.7-1.8-3-1.4c-0.1,0-0.2,0.1-0.3,0.1c-1.2,0.4-1.8,1.7-1.4,2.9c0.4,1.2,1.7,1.8,3,1.4
	C27.9,57.4,28,57.4,28.1,57.3"/>
<path class="st0" d="M23.2,51.7L23,50.7c2.4-1.1,2.8-1.3,3.3-1.5l0,0c-0.5,0-1,0-3.6,0.1l-0.2-1c2.5-1.1,2.7-1.2,3.3-1.4l0,0
	c-0.5,0-0.9,0-3.6,0l-0.2-1l5,0.3l0.2,0.9c-2.2,1-2.6,1.1-3.5,1.5l0,0c0.9,0,1.3,0,3.8,0l0.2,0.9L23.2,51.7z"/>
<polygon class="st0" points="21.8,40.2 21.8,39.3 26.6,39.2 26.6,40.2 23.2,42.2 23.2,42.2 26.6,42.2 26.6,43.2 21.8,43.2 
	21.8,42.1 25.1,40.2 25.1,40.2 "/>
<path class="st0" d="M25.4,36.2c0.5,0.1,0.9-0.3,0.9-0.7c0,0,0-0.1,0-0.1c0.1-0.5,0.1-1-0.5-1.1s-0.5,0.3-0.7,0.8L25,35.5
	c-0.3,0.7-0.6,1.4-1.6,1.3c-0.5-0.1-1.4-0.5-1.2-2.1c0-0.9,0.7-1.6,1.6-1.6c0.1,0,0.1,0,0.2,0l-0.2,1c-0.4,0-0.8,0.3-0.9,0.7
	c0,0,0,0.1,0,0.1c-0.1,0.4,0,0.8,0.4,0.9c0,0,0,0,0,0c0.3,0,0.6-0.1,0.6-0.4l0.5-1.1c0.2-0.7,0.8-1.1,1.5-1c0.9,0.2,1.5,1.1,1.3,2
	c0,0,0,0.1,0,0.1c-0.3,1.7-1.3,1.9-1.9,1.8L25.4,36.2z"/>
<polygon class="st0" points="24.2,27.5 24.6,26.5 28.6,29.6 28.3,30.5 23.2,30.5 23.5,29.5 27.3,29.7 27.3,29.7 "/>
<polygon class="st0" points="25.6,24.4 26,23.5 30.3,25.7 29.9,26.6 "/>
<polygon class="st0" points="31.2,22.5 32.5,20.5 33.2,21 31.3,23.8 27.4,21.1 27.9,20.3 "/>
<polygon class="st0" points="34.4,18.3 36.1,16.5 36.7,17.1 34.4,19.6 30.9,16.3 31.6,15.6 "/>
<polygon class="st0" points="38.4,10.6 36.4,12.2 37,13 38.9,11.5 39.4,12.2 37.6,13.6 38.3,14.6 40.4,13 40.9,13.7 38.1,15.9 
	35.1,12.1 37.9,9.9 "/>
<path class="st0" d="M42.4,9.3c0.3-0.2,0.6,0,0.8,0.2c0.2,0.3,0,0.6-0.2,0.8c-0.3,0.2-0.6,0-0.8-0.2C42,9.9,42.1,9.5,42.4,9.3
	C42.4,9.3,42.4,9.3,42.4,9.3"/>
<path class="st0" d="M49.1,6.9L51,6.3l0.8,2.5L51.2,9l-0.3-0.5c-0.2,0.6-0.6,1-1.2,1.1c-1.2,0.4-2.4-0.3-2.8-1.5
	c0-0.1,0-0.2-0.1-0.3c-0.5-1.2,0-2.5,1.2-3c0.1,0,0.2-0.1,0.3-0.1c0.9-0.4,2,0,2.5,0.9l-1,0.3c-0.3-0.4-0.8-0.6-1.2-0.4
	c-0.7,0.2-1.2,0.9-0.8,2.1c0.1,0.8,0.7,1.3,1.5,1.2c0.1,0,0.2,0,0.3-0.1c0.6-0.2,0.9-0.8,0.8-1.4l-1.1,0.3L49.1,6.9z"/>
<path class="st0" d="M54.7,5.6l-0.1-1.3l1.2-0.1c0.3-0.1,0.7,0.1,0.7,0.4c0,0,0,0.1,0,0.1C56.6,5,56.4,5.4,56,5.4
	c-0.1,0-0.1,0-0.2,0L54.7,5.6z M54,8.4l1-0.1l-0.2-1.9l1-0.1c0.7-0.1,0.8,0.2,0.9,0.8c0,0.3,0.1,0.6,0.2,1l1.1-0.1V7.8
	c-0.2-0.1-0.2-0.2-0.3-0.9c-0.1-0.9-0.3-1-0.7-1.1c0.5-0.2,0.7-0.7,0.6-1.2c-0.1-0.7-0.7-1.3-1.5-1.2c-0.1,0-0.1,0-0.2,0l-2.4,0.3
	L54,8.4z"/>
<path class="st0" d="M62.3,4.3L62.3,4.3l0.5,1.9l-1.2-0.1L62.3,4.3z M61.3,7l1.8,0.1l0.2,1l1.1,0.1L63,3.3l-1.2-0.1l-2,4.7l1,0.1
	L61.3,7z"/>
<polygon class="st0" points="70.7,9.7 69.8,9.5 70.8,5.6 70.8,5.6 68.9,9.2 68,9 68.2,4.9 68.2,4.9 67.1,8.7 66.2,8.5 67.5,3.9 
	68.9,4.2 68.7,8.1 68.7,8.1 70.6,4.7 72,5.1 "/>
<polygon class="st0" points="76.9,12.6 76,12.2 77.9,8.6 77.9,8.6 75.2,11.8 74.4,11.3 75.4,7.4 75.4,7.4 73.6,10.9 72.7,10.5 
	74.9,6.2 76.2,6.9 75.3,10.6 75.3,10.7 77.8,7.7 79.1,8.3 "/>
<path class="st0" d="M82.5,12.1L82.5,12.1L81.8,14l-1-0.8L82.5,12.1z M80.1,13.7l1.4,1.1l-0.4,1l0.9,0.7l1.7-4.8L82.8,11l-4.3,2.7
	l0.8,0.7L80.1,13.7z"/>
<path class="st0" d="M86.1,16.8l1-0.8l0.8,0.9c0.3,0.2,0.3,0.6,0.1,0.8c0,0-0.1,0.1-0.1,0.1c-0.2,0.2-0.6,0.3-0.9,0
	c-0.1,0-0.1-0.1-0.1-0.2L86.1,16.8z M83.4,17.8l0.7,0.8l1.4-1.2l0.6,0.8c0.5,0.6,0.3,0.8-0.2,1.2c-0.3,0.2-0.5,0.4-0.7,0.7l0.7,0.8
	l0.1-0.1c-0.1-0.2,0-0.3,0.6-0.8s0.6-0.9,0.5-1.3c0.4,0.2,1,0.2,1.4-0.2c0.6-0.5,0.6-1.4,0.1-1.9c0,0-0.1-0.1-0.1-0.1l-1.6-1.8
	L83.4,17.8z"/>
<path class="st0" d="M91.1,23.1c0.2,0.3,0.1,0.6-0.2,0.8s-0.6,0.1-0.8-0.2c-0.2-0.3-0.1-0.6,0.2-0.8C90.6,22.7,90.9,22.8,91.1,23.1
	C91.1,23.1,91.1,23.1,91.1,23.1"/>
<path class="st0" d="M92,28.7c-0.4,0.2-0.6,0.7-0.5,1.1c0,0,0,0.1,0.1,0.1c0.2,0.5,0.4,0.9,0.9,0.7c0.5-0.2,0.3-0.5,0.3-1l-0.1-0.5
	c-0.1-0.8-0.2-1.6,0.8-1.9c0.5-0.2,1.5-0.2,2,1.2c0.4,0.8,0.1,1.8-0.7,2.2c-0.1,0-0.1,0.1-0.2,0.1l-0.3-0.9c0.4-0.2,0.6-0.6,0.4-1.1
	c0,0,0-0.1-0.1-0.1c0-0.4-0.4-0.7-0.8-0.6c0,0,0,0,0,0c-0.3,0.1-0.4,0.4-0.3,0.6l0.1,1.2c0.2,0.7-0.1,1.4-0.8,1.6
	c-0.9,0.3-1.8-0.3-2.1-1.2c0,0,0-0.1,0-0.1c-0.6-1.7,0.3-2.3,0.8-2.5L92,28.7z"/>
<path class="st0" d="M95.8,36.3c0.5-0.2,0.8-0.7,0.7-1.2c-0.1-0.5-0.5-1.1-1.8-0.9c-0.9,0.1-1.6,0.6-1.4,1.4
	c0.1,0.5,0.5,0.9,1.1,0.9l0.2,1c-1.1,0-2-0.7-2.1-1.8c-0.2-1.3,0.5-2.3,2.1-2.6c1.6-0.3,2.7,0.6,2.8,1.8c0.3,1-0.3,2-1.3,2.3
	L95.8,36.3z"/>
<polygon class="st0" points="95,40.7 92.8,40.7 92.8,39.7 97.6,39.7 97.6,40.7 95.8,40.7 95.8,42.6 97.6,42.6 97.6,43.6 92.8,43.5 
	92.8,42.5 94.9,42.6 "/>
<path class="st0" d="M94.8,46.9c1.3,0.3,1.5,1.1,1.3,1.6s-0.6,1.2-1.9,0.9c-1.3-0.3-1.5-1.1-1.4-1.6C92.9,47.3,93.4,46.6,94.8,46.9
	 M94.9,45.9c-1.3-0.1-2.4,0.8-2.6,2c-0.1,1.3,0.8,2.4,2,2.6c1.2,0.1,2.3-0.7,2.5-1.8c0.3-1.2-0.4-2.4-1.7-2.7
	C95.2,45.9,95,45.9,94.9,45.9"/>
<path class="st0" d="M93,53.4c1.2,0.5,1.3,1.3,1,1.8c-0.3,0.5-0.8,1.1-2,0.6c-1.2-0.5-1.3-1.3-1-1.8C91.3,53.4,91.8,52.8,93,53.4
	 M93.4,52.4c-1.2-0.4-2.5,0.3-2.9,1.5s0.3,2.5,1.5,2.9c1.1,0.4,2.4-0.2,2.8-1.3c0.5-1.1,0-2.5-1.1-3C93.6,52.5,93.5,52.5,93.4,52.4"
	/>
<polygon class="st0" points="88.7,58.7 87.4,60.8 86.7,60.3 88.5,57.4 92.5,60 92,60.8 "/>
</svg>
